<mxfile host="65bd71144e">
    <diagram id="V7uNuJelQm5kcV2lfRzm" name="Page-1">
        <mxGraphModel dx="1542" dy="4049" grid="1" gridSize="10" guides="1" tooltips="1" connect="1" arrows="1" fold="1" page="1" pageScale="1" pageWidth="1200" pageHeight="1600" math="0" shadow="0">
            <root>
                <mxCell id="0"/>
                <mxCell id="1" parent="0"/>
                <UserObject label="" lucidchartObjectId="WwL~f1fVtr~X" id="pAOpR8gL6AzcXt_7lyp2-1">
                    <mxCell style="html=1;overflow=block;blockSpacing=1;whiteSpace=wrap;container=1;pointerEvents=0;collapsible=0;recursiveResize=0;fontSize=16.7;spacing=0;strokeColor=#006EAF;strokeOpacity=100;fillOpacity=100;rounded=1;absoluteArcSize=1;arcSize=9;fillColor=#1ba1e2;strokeWidth=0.8;fontColor=#ffffff;" parent="1" vertex="1">
                        <mxGeometry x="690" y="-1670" width="1230" height="1181" as="geometry"/>
                    </mxCell>
                </UserObject>
                <UserObject label="" lucidchartObjectId="tQ2~HA3BaWpf" id="pAOpR8gL6AzcXt_7lyp2-2">
                    <mxCell style="html=1;jettySize=18;whiteSpace=wrap;fontSize=13;strokeColor=#3a414a;strokeOpacity=100;dashed=1;fixDash=1;strokeWidth=0.8;rounded=1;arcSize=12;edgeStyle=orthogonalEdgeStyle;startArrow=none;endArrow=block;endFill=1;exitX=1;exitY=0;entryX=0;entryY=0.5;entryDx=0;entryDy=0;exitDx=0;exitDy=0;" parent="pAOpR8gL6AzcXt_7lyp2-1" source="pAOpR8gL6AzcXt_7lyp2-9" target="pAOpR8gL6AzcXt_7lyp2-8" edge="1">
                        <mxGeometry width="100" height="100" relative="1" as="geometry">
                            <Array as="points">
                                <mxPoint x="583" y="188"/>
                                <mxPoint x="583" y="195"/>
                                <mxPoint x="710" y="195"/>
                                <mxPoint x="710" y="253"/>
                            </Array>
                            <mxPoint x="431.0000000000002" y="253.9999999999999" as="sourcePoint"/>
                            <mxPoint x="550.22" y="231.5" as="targetPoint"/>
                        </mxGeometry>
                    </mxCell>
                </UserObject>
                <mxCell id="pAOpR8gL6AzcXt_7lyp2-3" value="&lt;span style=&quot;background-color: rgb(27, 29, 27);&quot;&gt;&lt;font color=&quot;#ffffff&quot;&gt;include&lt;/font&gt;&lt;/span&gt;" style="text;html=1;resizable=0;labelBackgroundColor=default;align=center;verticalAlign=middle;fontStyle=1;fontColor=#333333;fontSize=13.3;" parent="pAOpR8gL6AzcXt_7lyp2-2" vertex="1">
                    <mxGeometry x="-0.26845985088168123" relative="1" as="geometry"/>
                </mxCell>
                <UserObject label="Affichier  sign in Error" lucidchartObjectId="t9Y~fRcxpFrP" id="pAOpR8gL6AzcXt_7lyp2-4">
                    <mxCell style="html=1;overflow=block;blockSpacing=1;whiteSpace=wrap;ellipse;fontSize=13;spacing=3.8;strokeOpacity=100;fillOpacity=100;rounded=1;absoluteArcSize=1;arcSize=9;strokeWidth=0.8;" parent="pAOpR8gL6AzcXt_7lyp2-1" vertex="1">
                        <mxGeometry x="900" y="305" width="135" height="75" as="geometry"/>
                    </mxCell>
                </UserObject>
                <UserObject label="&lt;br&gt;see other admins articles&lt;br&gt;" lucidchartObjectId="sHL~hFCpv.Ey" id="pAOpR8gL6AzcXt_7lyp2-5">
                    <mxCell style="html=1;overflow=block;blockSpacing=1;whiteSpace=wrap;ellipse;fontSize=13;spacing=3.8;strokeColor=#3a414a;strokeOpacity=100;rounded=1;absoluteArcSize=1;arcSize=9;strokeWidth=0.8;" parent="pAOpR8gL6AzcXt_7lyp2-1" vertex="1">
                        <mxGeometry x="430" y="610" width="120" height="90" as="geometry"/>
                    </mxCell>
                </UserObject>
                <UserObject label="crud his articles only" lucidchartObjectId="6TY~gf8Y0vRb" id="pAOpR8gL6AzcXt_7lyp2-7">
                    <mxCell style="html=1;overflow=block;blockSpacing=1;whiteSpace=wrap;ellipse;fontSize=13;spacing=3.8;strokeColor=#3a414a;strokeOpacity=100;rounded=1;absoluteArcSize=1;arcSize=9;strokeWidth=0.8;" parent="pAOpR8gL6AzcXt_7lyp2-1" vertex="1">
                        <mxGeometry x="440" y="750" width="120" height="90" as="geometry"/>
                    </mxCell>
                </UserObject>
                <UserObject label="Verifier le  Login" lucidchartObjectId="R04~_L7kbmOG" id="pAOpR8gL6AzcXt_7lyp2-8">
                    <mxCell style="html=1;overflow=block;blockSpacing=1;whiteSpace=wrap;ellipse;fontSize=13;spacing=3.8;strokeOpacity=100;fillOpacity=100;rounded=1;absoluteArcSize=1;arcSize=9;strokeWidth=0.8;" parent="pAOpR8gL6AzcXt_7lyp2-1" vertex="1">
                        <mxGeometry x="820" y="215" width="105" height="75" as="geometry"/>
                    </mxCell>
                </UserObject>
                <UserObject label="Sign in" lucidchartObjectId="R04~IWldYmFP" id="pAOpR8gL6AzcXt_7lyp2-9">
                    <mxCell style="html=1;overflow=block;blockSpacing=1;whiteSpace=wrap;ellipse;fontSize=13;spacing=3.8;strokeOpacity=100;fillOpacity=100;rounded=1;absoluteArcSize=1;arcSize=9;strokeWidth=0.8;" parent="pAOpR8gL6AzcXt_7lyp2-1" vertex="1">
                        <mxGeometry x="420" y="195" width="120" height="90" as="geometry"/>
                    </mxCell>
                </UserObject>
                <UserObject label="" lucidchartObjectId="uR2~YgfLLIHb" id="pAOpR8gL6AzcXt_7lyp2-10">
                    <mxCell style="html=1;jettySize=18;whiteSpace=wrap;fontSize=13;strokeColor=#3a414a;strokeOpacity=100;dashed=1;fixDash=1;strokeWidth=0.8;rounded=1;arcSize=12;edgeStyle=orthogonalEdgeStyle;startArrow=none;endArrow=block;endFill=1;exitX=0;exitY=1;entryX=1;entryY=1;entryDx=0;entryDy=0;exitDx=0;exitDy=0;" parent="pAOpR8gL6AzcXt_7lyp2-1" source="pAOpR8gL6AzcXt_7lyp2-4" target="pAOpR8gL6AzcXt_7lyp2-9" edge="1">
                        <mxGeometry width="100" height="100" relative="1" as="geometry">
                            <Array as="points">
                                <mxPoint x="849" y="335"/>
                                <mxPoint x="620" y="335"/>
                                <mxPoint x="620" y="252"/>
                            </Array>
                            <mxPoint x="605.5950000000003" y="377.25" as="sourcePoint"/>
                            <mxPoint x="450" y="329.9999999999999" as="targetPoint"/>
                        </mxGeometry>
                    </mxCell>
                </UserObject>
                <mxCell id="pAOpR8gL6AzcXt_7lyp2-11" value="&lt;span style=&quot;background-color: rgb(255, 255, 255);&quot;&gt;extends&lt;/span&gt;" style="text;html=1;resizable=0;labelBackgroundColor=default;align=center;verticalAlign=middle;fontStyle=1;fontColor=#333333;fontSize=13.3;" parent="pAOpR8gL6AzcXt_7lyp2-10" vertex="1">
                    <mxGeometry relative="1" as="geometry"/>
                </mxCell>
                <UserObject label="Affichier  sign up Error" lucidchartObjectId="t9Y~fRcxpFrP" id="pAOpR8gL6AzcXt_7lyp2-12">
                    <mxCell style="html=1;overflow=block;blockSpacing=1;whiteSpace=wrap;ellipse;fontSize=13;spacing=3.8;strokeOpacity=100;fillOpacity=100;rounded=1;absoluteArcSize=1;arcSize=9;strokeWidth=0.8;" parent="pAOpR8gL6AzcXt_7lyp2-1" vertex="1">
                        <mxGeometry x="790" y="115" width="135" height="75" as="geometry"/>
                    </mxCell>
                </UserObject>
                <UserObject label="pasword hash&lt;br&gt;" lucidchartObjectId="_8Y~ylj85JAO" id="pAOpR8gL6AzcXt_7lyp2-13">
                    <mxCell style="html=1;overflow=block;blockSpacing=1;whiteSpace=wrap;ellipse;fontSize=13;spacing=3.8;strokeOpacity=100;fillOpacity=100;rounded=1;absoluteArcSize=1;arcSize=9;strokeWidth=0.8;" parent="pAOpR8gL6AzcXt_7lyp2-1" vertex="1">
                        <mxGeometry x="805" width="105" height="75" as="geometry"/>
                    </mxCell>
                </UserObject>
                <UserObject label="Sign up" lucidchartObjectId="6zL~gIPZ2NpY" id="pAOpR8gL6AzcXt_7lyp2-14">
                    <mxCell style="html=1;overflow=block;blockSpacing=1;whiteSpace=wrap;ellipse;fontSize=13;spacing=3.8;strokeOpacity=100;fillOpacity=100;rounded=1;absoluteArcSize=1;arcSize=9;strokeWidth=0.8;" parent="pAOpR8gL6AzcXt_7lyp2-1" vertex="1">
                        <mxGeometry x="470" y="55" width="120" height="90" as="geometry"/>
                    </mxCell>
                </UserObject>
                <UserObject label="" lucidchartObjectId="tQ2~HA3BaWpf" id="pAOpR8gL6AzcXt_7lyp2-15">
                    <mxCell style="html=1;jettySize=18;whiteSpace=wrap;fontSize=13;strokeColor=#3a414a;strokeOpacity=100;dashed=1;fixDash=1;strokeWidth=0.8;rounded=1;arcSize=12;edgeStyle=orthogonalEdgeStyle;startArrow=none;endArrow=block;endFill=1;exitX=1.003;exitY=0.5;exitPerimeter=0;entryX=-0.004;entryY=0.5;entryPerimeter=0;" parent="pAOpR8gL6AzcXt_7lyp2-1" source="pAOpR8gL6AzcXt_7lyp2-14" target="pAOpR8gL6AzcXt_7lyp2-13" edge="1">
                        <mxGeometry width="100" height="100" relative="1" as="geometry">
                            <Array as="points"/>
                        </mxGeometry>
                    </mxCell>
                </UserObject>
                <mxCell id="pAOpR8gL6AzcXt_7lyp2-16" value="&lt;span style=&quot;background-color: rgb(255, 255, 255);&quot;&gt;include&lt;/span&gt;" style="text;html=1;resizable=0;labelBackgroundColor=default;align=center;verticalAlign=middle;fontStyle=1;fontColor=#333333;fontSize=13.3;" parent="pAOpR8gL6AzcXt_7lyp2-15" vertex="1">
                    <mxGeometry x="-0.26845985088168123" relative="1" as="geometry"/>
                </mxCell>
                <UserObject label="" lucidchartObjectId="uR2~YgfLLIHb" id="pAOpR8gL6AzcXt_7lyp2-17">
                    <mxCell style="html=1;jettySize=18;whiteSpace=wrap;fontSize=13;strokeColor=#3a414a;strokeOpacity=100;dashed=1;fixDash=1;strokeWidth=0.8;rounded=1;arcSize=12;edgeStyle=orthogonalEdgeStyle;startArrow=none;endArrow=block;endFill=1;exitX=-0.003;exitY=0.5;exitPerimeter=0;entryX=0.95;entryY=0.725;entryPerimeter=0;" parent="pAOpR8gL6AzcXt_7lyp2-1" source="pAOpR8gL6AzcXt_7lyp2-12" target="pAOpR8gL6AzcXt_7lyp2-14" edge="1">
                        <mxGeometry width="100" height="100" relative="1" as="geometry">
                            <Array as="points"/>
                        </mxGeometry>
                    </mxCell>
                </UserObject>
                <mxCell id="pAOpR8gL6AzcXt_7lyp2-18" value="&lt;font style=&quot;background-color: rgb(255, 255, 255);&quot; color=&quot;#1b1d1b&quot;&gt;extends&lt;/font&gt;" style="text;html=1;resizable=0;labelBackgroundColor=default;align=center;verticalAlign=middle;fontStyle=1;fontColor=#333333;fontSize=13.3;" parent="pAOpR8gL6AzcXt_7lyp2-17" vertex="1">
                    <mxGeometry relative="1" as="geometry"/>
                </mxCell>
                <UserObject label="" lucidchartObjectId="uR2~YgfLLIHb" id="pAOpR8gL6AzcXt_7lyp2-22">
                    <mxCell style="html=1;jettySize=18;whiteSpace=wrap;fontSize=13;strokeColor=#3a414a;strokeOpacity=100;dashed=1;fixDash=1;strokeWidth=0.8;rounded=1;arcSize=12;edgeStyle=orthogonalEdgeStyle;startArrow=none;endArrow=block;endFill=1;entryX=0.5;entryY=0;entryDx=0;entryDy=0;" parent="pAOpR8gL6AzcXt_7lyp2-1" source="pAOpR8gL6AzcXt_7lyp2-14" target="pAOpR8gL6AzcXt_7lyp2-9" edge="1">
                        <mxGeometry width="100" height="100" relative="1" as="geometry">
                            <Array as="points"/>
                            <mxPoint x="460" y="205" as="sourcePoint"/>
                            <mxPoint x="284.2000000000005" y="175" as="targetPoint"/>
                        </mxGeometry>
                    </mxCell>
                </UserObject>
                <mxCell id="pAOpR8gL6AzcXt_7lyp2-23" value="&lt;font color=&quot;#ffffff&quot;&gt;extends&lt;/font&gt;" style="text;html=1;resizable=0;labelBackgroundColor=default;align=center;verticalAlign=middle;fontStyle=1;fontColor=#333333;fontSize=13.3;" parent="pAOpR8gL6AzcXt_7lyp2-22" vertex="1">
                    <mxGeometry relative="1" as="geometry"/>
                </mxCell>
                <UserObject label="dynamic form" lucidchartObjectId="qHL~eKGGqEaz" id="pAOpR8gL6AzcXt_7lyp2-24">
                    <mxCell style="html=1;overflow=block;blockSpacing=1;whiteSpace=wrap;ellipse;fontSize=13;spacing=3.8;strokeOpacity=100;fillOpacity=100;rounded=1;absoluteArcSize=1;arcSize=9;strokeWidth=0.8;" parent="pAOpR8gL6AzcXt_7lyp2-1" vertex="1">
                        <mxGeometry x="570" y="530" width="120" height="90" as="geometry"/>
                    </mxCell>
                </UserObject>
                <UserObject label="logout" lucidchartObjectId="lHL~nA3YFMXg" id="pAOpR8gL6AzcXt_7lyp2-25">
                    <mxCell style="html=1;overflow=block;blockSpacing=1;whiteSpace=wrap;ellipse;fontSize=13;spacing=3.8;strokeColor=#3a414a;strokeOpacity=100;rounded=1;absoluteArcSize=1;arcSize=9;strokeWidth=0.8;" parent="pAOpR8gL6AzcXt_7lyp2-1" vertex="1">
                        <mxGeometry x="410" y="360" width="120" height="90" as="geometry"/>
                    </mxCell>
                </UserObject>
                <UserObject label="tri by title" lucidchartObjectId="6TY~gf8Y0vRb" id="0HeJv69CL-zHOiq2_ARJ-2">
                    <mxCell style="html=1;overflow=block;blockSpacing=1;whiteSpace=wrap;ellipse;fontSize=13;spacing=3.8;strokeColor=#3a414a;strokeOpacity=100;rounded=1;absoluteArcSize=1;arcSize=9;strokeWidth=0.8;" parent="pAOpR8gL6AzcXt_7lyp2-1" vertex="1">
                        <mxGeometry x="440" y="890.5" width="120" height="90" as="geometry"/>
                    </mxCell>
                </UserObject>
                <UserObject label="tri by category&lt;br&gt;" lucidchartObjectId="6TY~gf8Y0vRb" id="0HeJv69CL-zHOiq2_ARJ-7">
                    <mxCell style="html=1;overflow=block;blockSpacing=1;whiteSpace=wrap;ellipse;fontSize=13;spacing=3.8;strokeColor=#3a414a;strokeOpacity=100;rounded=1;absoluteArcSize=1;arcSize=9;strokeWidth=0.8;" parent="pAOpR8gL6AzcXt_7lyp2-1" vertex="1">
                        <mxGeometry x="430" y="990.5" width="120" height="90" as="geometry"/>
                    </mxCell>
                </UserObject>
                <UserObject label="" lucidchartObjectId="rYY~-Gth7mYF" id="0HeJv69CL-zHOiq2_ARJ-8">
                    <mxCell style="html=1;jettySize=18;whiteSpace=wrap;fontSize=13;strokeColor=#3a414a;strokeOpacity=100;strokeWidth=0.8;rounded=0;startArrow=none;endArrow=none;entryX=1.003;entryY=0.5;entryPerimeter=0;" parent="pAOpR8gL6AzcXt_7lyp2-1" edge="1">
                        <mxGeometry width="100" height="100" relative="1" as="geometry">
                            <Array as="points"/>
                            <mxPoint x="1170" y="520" as="sourcePoint"/>
                            <mxPoint x="550.0000000000002" y="1041.8899999999999" as="targetPoint"/>
                        </mxGeometry>
                    </mxCell>
                </UserObject>
                <UserObject label="see his own articles" lucidchartObjectId="qHL~eKGGqEaz" id="0HeJv69CL-zHOiq2_ARJ-10">
                    <mxCell style="html=1;overflow=block;blockSpacing=1;whiteSpace=wrap;ellipse;fontSize=13;spacing=3.8;strokeOpacity=100;fillOpacity=100;rounded=1;absoluteArcSize=1;arcSize=9;strokeWidth=0.8;" parent="pAOpR8gL6AzcXt_7lyp2-1" vertex="1">
                        <mxGeometry x="300" y="440" width="120" height="90" as="geometry"/>
                    </mxCell>
                </UserObject>
                <UserObject label="&lt;span style=&quot;background-color: rgb(255, 255, 255);&quot;&gt;&lt;font color=&quot;#000000&quot;&gt;admin&lt;/font&gt;&lt;/span&gt;" lucidchartObjectId="ExL~Doz4EXM2" id="pAOpR8gL6AzcXt_7lyp2-26">
                    <mxCell style="html=1;overflow=block;blockSpacing=1;shape=umlActor;labelPosition=center;verticalLabelPosition=bottom;verticalAlign=top;whiteSpace=nowrap;fontSize=16.7;fontColor=#FFFFFF;spacing=0;strokeColor=#3a414a;strokeOpacity=100;rounded=1;absoluteArcSize=1;arcSize=9;strokeWidth=0.8;labelBorderColor=none;" parent="pAOpR8gL6AzcXt_7lyp2-1" vertex="1">
                        <mxGeometry x="1150" y="430" width="60" height="180" as="geometry"/>
                    </mxCell>
                </UserObject>
                <UserObject label="" lucidchartObjectId="fIL~aBcUFOe5" id="pAOpR8gL6AzcXt_7lyp2-31">
                    <mxCell style="html=1;jettySize=18;whiteSpace=wrap;fontSize=13;strokeColor=#3a414a;strokeOpacity=100;strokeWidth=0.8;rounded=0;startArrow=none;endArrow=none;exitX=0.494;exitY=0.454;exitPerimeter=0;" parent="pAOpR8gL6AzcXt_7lyp2-1" source="pAOpR8gL6AzcXt_7lyp2-26" target="pAOpR8gL6AzcXt_7lyp2-9" edge="1">
                        <mxGeometry width="100" height="100" relative="1" as="geometry">
                            <Array as="points"/>
                            <mxPoint x="600.3600000000001" y="1005" as="targetPoint"/>
                        </mxGeometry>
                    </mxCell>
                </UserObject>
                <UserObject label="" lucidchartObjectId="vWY~Ctv~CwOu" id="pAOpR8gL6AzcXt_7lyp2-33">
                    <mxCell style="html=1;jettySize=18;whiteSpace=wrap;fontSize=13;strokeColor=#3a414a;strokeOpacity=100;strokeWidth=0.8;rounded=0;startArrow=none;endArrow=none;exitX=0.494;exitY=0.454;exitPerimeter=0;entryX=1.003;entryY=0.5;entryPerimeter=0;" parent="pAOpR8gL6AzcXt_7lyp2-1" source="pAOpR8gL6AzcXt_7lyp2-26" target="pAOpR8gL6AzcXt_7lyp2-25" edge="1">
                        <mxGeometry width="100" height="100" relative="1" as="geometry">
                            <Array as="points"/>
                        </mxGeometry>
                    </mxCell>
                </UserObject>
                <UserObject label="" lucidchartObjectId="FWY~f9NL.Xs5" id="pAOpR8gL6AzcXt_7lyp2-34">
                    <mxCell style="html=1;jettySize=18;whiteSpace=wrap;fontSize=13;strokeColor=#3a414a;strokeOpacity=100;strokeWidth=0.8;rounded=0;startArrow=none;endArrow=none;exitX=0.494;exitY=0.454;exitPerimeter=0;entryX=0.975;entryY=0.334;entryPerimeter=0;" parent="pAOpR8gL6AzcXt_7lyp2-1" source="pAOpR8gL6AzcXt_7lyp2-26" target="pAOpR8gL6AzcXt_7lyp2-24" edge="1">
                        <mxGeometry width="100" height="100" relative="1" as="geometry">
                            <Array as="points"/>
                        </mxGeometry>
                    </mxCell>
                </UserObject>
                <UserObject label="" lucidchartObjectId="oXY~rGzYB1nG" id="pAOpR8gL6AzcXt_7lyp2-35">
                    <mxCell style="html=1;jettySize=18;whiteSpace=wrap;fontSize=13;strokeColor=#3a414a;strokeOpacity=100;strokeWidth=0.8;rounded=0;startArrow=none;endArrow=none;exitX=0.494;exitY=0.454;exitPerimeter=0;entryX=1.003;entryY=0.5;entryPerimeter=0;" parent="pAOpR8gL6AzcXt_7lyp2-1" source="pAOpR8gL6AzcXt_7lyp2-26" target="pAOpR8gL6AzcXt_7lyp2-5" edge="1">
                        <mxGeometry width="100" height="100" relative="1" as="geometry">
                            <Array as="points"/>
                        </mxGeometry>
                    </mxCell>
                </UserObject>
                <UserObject label="" lucidchartObjectId="rYY~-Gth7mYF" id="pAOpR8gL6AzcXt_7lyp2-36">
                    <mxCell style="html=1;jettySize=18;whiteSpace=wrap;fontSize=13;strokeColor=#3a414a;strokeOpacity=100;strokeWidth=0.8;rounded=0;startArrow=none;endArrow=none;exitX=0.494;exitY=0.454;exitPerimeter=0;entryX=1.003;entryY=0.5;entryPerimeter=0;" parent="pAOpR8gL6AzcXt_7lyp2-1" source="pAOpR8gL6AzcXt_7lyp2-26" target="pAOpR8gL6AzcXt_7lyp2-7" edge="1">
                        <mxGeometry width="100" height="100" relative="1" as="geometry">
                            <Array as="points"/>
                        </mxGeometry>
                    </mxCell>
                </UserObject>
                <mxCell id="0HeJv69CL-zHOiq2_ARJ-1" style="edgeStyle=orthogonalEdgeStyle;rounded=0;orthogonalLoop=1;jettySize=auto;html=1;exitX=0.5;exitY=0.5;exitDx=0;exitDy=0;exitPerimeter=0;entryX=0.558;entryY=0.43;entryDx=0;entryDy=0;entryPerimeter=0;" parent="pAOpR8gL6AzcXt_7lyp2-1" source="pAOpR8gL6AzcXt_7lyp2-26" target="pAOpR8gL6AzcXt_7lyp2-26" edge="1">
                    <mxGeometry relative="1" as="geometry"/>
                </mxCell>
                <mxCell id="pAOpR8gL6AzcXt_7lyp2-41" value="" style="endArrow=none;html=1;rounded=0;" parent="1" edge="1">
                    <mxGeometry width="50" height="50" relative="1" as="geometry">
                        <mxPoint x="1170" y="-310" as="sourcePoint"/>
                        <mxPoint x="1171.9201861100519" y="-311.7067028547326" as="targetPoint"/>
                    </mxGeometry>
                </mxCell>
                <UserObject label="" lucidchartObjectId="vWY~Ctv~CwOu" id="0HeJv69CL-zHOiq2_ARJ-12">
                    <mxCell style="html=1;jettySize=18;whiteSpace=wrap;fontSize=13;strokeColor=#3a414a;strokeOpacity=100;strokeWidth=0.8;rounded=0;startArrow=none;endArrow=none;" parent="1" target="0HeJv69CL-zHOiq2_ARJ-10" edge="1">
                        <mxGeometry width="100" height="100" relative="1" as="geometry">
                            <Array as="points"/>
                            <mxPoint x="1850" y="-1150" as="sourcePoint"/>
                            <mxPoint x="1440" y="-1140" as="targetPoint"/>
                        </mxGeometry>
                    </mxCell>
                </UserObject>
                <UserObject label="" lucidchartObjectId="rYY~-Gth7mYF" id="3">
                    <mxCell style="html=1;jettySize=18;whiteSpace=wrap;fontSize=13;strokeColor=#3a414a;strokeOpacity=100;strokeWidth=0.8;rounded=0;startArrow=none;endArrow=none;entryX=1;entryY=0.5;entryDx=0;entryDy=0;" parent="1" target="0HeJv69CL-zHOiq2_ARJ-2" edge="1">
                        <mxGeometry width="100" height="100" relative="1" as="geometry">
                            <Array as="points"/>
                            <mxPoint x="1870" y="-1140" as="sourcePoint"/>
                            <mxPoint x="1250" y="-618.1100000000006" as="targetPoint"/>
                        </mxGeometry>
                    </mxCell>
                </UserObject>
            </root>
        </mxGraphModel>
    </diagram>
</mxfile>